<svg width="113" height="28" viewBox="0 0 113 28" fill="none" xmlns="http://www.w3.org/2000/svg">
<path fill-rule="evenodd" clip-rule="evenodd" d="M19.1789 14.1735C19.1789 18.3553 16.4088 21.8901 12.6035 23.043C11.8274 23.2781 11.1095 22.6448 11.1095 21.8339V16.4257C11.1095 15.9702 11.3401 15.5456 11.7222 15.2976L17.1744 11.7595C17.8917 11.294 18.8612 11.6106 19.0191 12.4511C19.1241 13.0092 19.1789 13.5849 19.1789 14.1735ZM16.2361 9.51554C16.8817 9.09658 17.05 8.2141 16.5095 7.6662C14.8293 5.963 12.4943 4.90732 9.91274 4.90732C7.01955 4.90732 4.43605 6.23327 2.73679 8.31064C2.24753 8.90877 2.50175 9.77501 3.18878 10.1287L9.2438 13.2462C9.6726 13.4669 10.1868 13.4412 10.5914 13.1786L16.2361 9.51554ZM0.646545 14.1735C0.646545 18.3554 3.41685 21.8903 7.22239 23.0431C7.9985 23.2782 8.71636 22.6449 8.71636 21.834V16.4864C8.71636 15.9828 8.43494 15.5214 7.98716 15.2908L2.45299 12.4416C1.69517 12.0514 0.765061 12.4592 0.686439 13.3079C0.66004 13.5929 0.646545 13.8816 0.646545 14.1735Z" fill="#16B364"/>
<path d="M28.33 20.9999V6.73332H29.9605L30.6738 9.42359V20.9999H28.33ZM38.2147 20.9999L29.6751 9.85159L29.9605 6.73332L38.5001 17.8816L38.2147 20.9999ZM38.2147 20.9999L37.5014 18.4931V6.73332H39.8452V20.9999H38.2147ZM47.3208 21.2037C46.3697 21.2037 45.5069 20.9795 44.7324 20.5311C43.958 20.0692 43.3398 19.451 42.8778 18.6765C42.4294 17.902 42.2052 17.0392 42.2052 16.0881C42.2052 15.137 42.4294 14.281 42.8778 13.5201C43.3398 12.7593 43.958 12.1546 44.7324 11.7062C45.5069 11.2443 46.3697 11.0133 47.3208 11.0133C48.2855 11.0133 49.1551 11.2375 49.9296 11.6859C50.704 12.1342 51.3155 12.7457 51.7638 13.5201C52.2258 14.281 52.4568 15.137 52.4568 16.0881C52.4568 17.0392 52.2258 17.902 51.7638 18.6765C51.3155 19.451 50.704 20.0692 49.9296 20.5311C49.1551 20.9795 48.2855 21.2037 47.3208 21.2037ZM47.3208 19.0433C47.8779 19.0433 48.367 18.9211 48.7882 18.6765C49.223 18.4183 49.5559 18.0651 49.7869 17.6167C50.0315 17.1683 50.1538 16.6588 50.1538 16.0881C50.1538 15.5175 50.0315 15.0147 49.7869 14.5799C49.5423 14.1452 49.2094 13.8055 48.7882 13.5609C48.367 13.3027 47.8779 13.1737 47.3208 13.1737C46.7773 13.1737 46.2882 13.3027 45.8534 13.5609C45.4322 13.8055 45.0993 14.1452 44.8547 14.5799C44.6238 15.0147 44.5083 15.5175 44.5083 16.0881C44.5083 16.6588 44.6238 17.1683 44.8547 17.6167C45.0993 18.0651 45.4322 18.4183 45.8534 18.6765C46.2882 18.9211 46.7773 19.0433 47.3208 19.0433ZM57.4883 20.9999L53.0249 11.2171H55.5114L58.915 19.186H57.4475L60.8715 11.2171H63.2561L58.7927 20.9999H57.4883ZM68.9864 21.2037C68.0082 21.2037 67.125 20.9863 66.3369 20.5515C65.5625 20.1032 64.9442 19.4917 64.4823 18.7173C64.0339 17.9428 63.8097 17.0732 63.8097 16.1085C63.8097 15.1438 64.0339 14.281 64.4823 13.5201C64.9307 12.7457 65.5353 12.1342 66.2962 11.6859C67.0706 11.2375 67.9266 11.0133 68.8642 11.0133C69.7745 11.0133 70.5762 11.2239 71.2691 11.6451C71.9756 12.0663 72.5259 12.6438 72.92 13.3775C73.3276 14.1112 73.5314 14.9468 73.5314 15.8843C73.5314 16.0474 73.5178 16.2172 73.4906 16.3938C73.477 16.5569 73.4499 16.7403 73.4091 16.9441H65.379V15.1098H72.2474L71.4118 15.8436C71.3846 15.2457 71.2691 14.743 71.0653 14.3354C70.8615 13.9278 70.5694 13.6152 70.1889 13.3979C69.8221 13.1805 69.3669 13.0718 68.8234 13.0718C68.2527 13.0718 67.7568 13.194 67.3356 13.4386C66.9144 13.6832 66.5883 14.0297 66.3573 14.478C66.1263 14.9128 66.0108 15.4359 66.0108 16.0474C66.0108 16.6588 66.1331 17.1955 66.3777 17.6575C66.6223 18.1194 66.9687 18.4795 67.4171 18.7376C67.8655 18.9822 68.3818 19.1045 68.9661 19.1045C69.4688 19.1045 69.9308 19.0162 70.352 18.8395C70.7868 18.6629 71.1536 18.4047 71.4525 18.0651L72.8792 19.5121C72.4036 20.0692 71.8262 20.4904 71.1468 20.7757C70.4675 21.0611 69.7473 21.2037 68.9864 21.2037ZM75.5324 20.9999V6.3257H77.7743V20.9999H75.5324ZM83.4258 20.9999L89.2955 6.73332H90.9259L96.7549 20.9999H94.2276L89.6623 9.44397H90.5183L85.9123 20.9999H83.4258ZM86.3199 18.2485V16.2104H93.8812V18.2485H86.3199ZM104.425 21.2037C103.447 21.2037 102.523 21.0135 101.653 20.6331C100.784 20.2526 100.023 19.7295 99.3706 19.0637C98.7184 18.3844 98.2021 17.6031 97.8217 16.7199C97.4548 15.8232 97.2714 14.8653 97.2714 13.8462C97.2714 12.8272 97.4548 11.8761 97.8217 10.9929C98.2021 10.1097 98.7184 9.33527 99.3706 8.6695C100.036 7.99014 100.811 7.46703 101.694 7.10017C102.591 6.71973 103.555 6.52951 104.588 6.52951C105.716 6.52951 106.762 6.74691 107.727 7.1817C108.691 7.61649 109.5 8.23471 110.152 9.03635L108.562 10.6261C108.141 10.0282 107.577 9.57305 106.871 9.26054C106.164 8.93445 105.403 8.7714 104.588 8.7714C103.61 8.7714 102.747 8.9888 102 9.42359C101.266 9.84479 100.695 10.4358 100.288 11.1967C99.8801 11.9576 99.6763 12.8408 99.6763 13.8462C99.6763 14.8517 99.8801 15.7417 100.288 16.5161C100.709 17.277 101.273 17.8748 101.979 18.3096C102.686 18.7444 103.488 18.9618 104.384 18.9618C105.335 18.9618 106.151 18.792 106.83 18.4523C107.523 18.099 108.053 17.5827 108.42 16.9034C108.787 16.2104 108.97 15.3612 108.97 14.3558L110.437 15.4156H104.344V13.2756H111.395V13.6017C111.395 15.3001 111.09 16.7131 110.478 17.8409C109.88 18.9686 109.058 19.811 108.012 20.3681C106.966 20.9252 105.77 21.2037 104.425 21.2037Z" fill="#26272B"/>
</svg>
